<svg xmlns="http://www.w3.org/2000/svg" viewBox="0 0 1200 700" role="img" aria-labelledby="t d"><title id="t">UART to I2C FPGA bridge</title><desc id="d">Serial bytes enter an FPGA bridge and become I2C clock and data signals.</desc>
<defs><linearGradient id="bg" x1="0" x2="1"><stop stop-color="#101f2b"/><stop offset="1" stop-color="#071018"/></linearGradient></defs><rect width="1200" height="700" fill="url(#bg)"/><g opacity=".1" stroke="#dff7ff"><path d="M0 100H1200M0 200H1200M0 300H1200M0 400H1200M0 500H1200M0 600H1200"/><path d="M100 0V700M200 0V700M300 0V700M400 0V700M500 0V700M600 0V700M700 0V700M800 0V700M900 0V700M1000 0V700M1100 0V700"/></g>
<g transform="translate(70 175)"><rect width="260" height="270" rx="28" fill="#0f2531" stroke="#61d8e7" stroke-width="3"/><text x="130" y="70" text-anchor="middle" fill="#61d8e7" font-family="monospace" font-size="34">UART RX</text><g font-family="monospace" font-size="22" fill="#eef5f8"><rect x="38" y="108" width="184" height="46" rx="10" fill="#173744"/><text x="130" y="139" text-anchor="middle">0x52 0x10</text><rect x="38" y="174" width="184" height="46" rx="10" fill="#173744"/><text x="130" y="205" text-anchor="middle">ADDR + DATA</text></g></g>
<g stroke="#61d8e7" stroke-width="5"><path d="M345 310H465"/><path d="M440 288l25 22-25 22" fill="none"/></g>
<g transform="translate(480 130)"><rect width="320" height="360" rx="34" fill="#132a37" stroke="#ffca74" stroke-width="3"/><text x="160" y="66" text-anchor="middle" fill="#ffca74" font-family="monospace" font-size="31">BRIDGE FSM</text><g fill="none" stroke="#ffca74" stroke-width="4"><circle cx="95" cy="145" r="36"/><circle cx="225" cy="145" r="36"/><circle cx="95" cy="260" r="36"/><circle cx="225" cy="260" r="36"/><path d="M131 145H189M225 181V224M189 260H131M95 224V181"/></g><g fill="#eef5f8" font-family="monospace" font-size="16" text-anchor="middle"><text x="95" y="151">IDLE</text><text x="225" y="151">START</text><text x="95" y="266">DONE</text><text x="225" y="266">SHIFT</text></g><text x="160" y="330" text-anchor="middle" fill="#9db0bb" font-family="monospace" font-size="19">FRAME · ACK · LENGTH</text></g>
<g stroke="#ffca74" stroke-width="5"><path d="M815 310H930"/><path d="M905 288l25 22-25 22" fill="none"/></g>
<g transform="translate(945 175)"><rect width="190" height="270" rx="28" fill="#0f2531" stroke="#ff8f79" stroke-width="3"/><text x="95" y="62" text-anchor="middle" fill="#ff8f79" font-family="monospace" font-size="32">I²C</text><g font-family="monospace" font-size="18"><text x="30" y="118" fill="#9db0bb">SCL</text><path d="M75 108h25v-24h25v24h25v-24h25v24" fill="none" stroke="#61d8e7" stroke-width="4"/><text x="30" y="190" fill="#9db0bb">SDA</text><path d="M75 180h38v-24h35v24h27" fill="none" stroke="#ffca74" stroke-width="4"/></g><text x="95" y="240" text-anchor="middle" fill="#eef5f8" font-family="monospace" font-size="18">OPEN-DRAIN BUS</text></g>
</svg>
